<svg xmlns="http://www.w3.org/2000/svg" width="1200" height="300" viewBox="0 0 1200 300"><defs><linearGradient id="g" x1="0" x2="1"><stop stop-color="#7C3AED"/><stop offset="1" stop-color="#4F46E5"/></linearGradient></defs><rect width="1200" height="300" rx="28" fill="#0D0D12"/><text x="54" y="58" fill="#A1A1AA" font-family="Arial" font-size="17" letter-spacing="3">WHAT I BUILD</text><text x="54" y="102" fill="#fff" font-family="Arial" font-size="34" font-weight="700">Systems that run real operations.</text><g font-family="Arial"><g transform="translate(54 140)"><rect width="250" height="110" rx="18" fill="#17171F" stroke="#2B2B38"/><circle cx="34" cy="34" r="14" fill="url(#g)"/><text x="62" y="40" fill="#fff" font-size="20" font-weight="700">Enterprise ERP</text><text x="24" y="76" fill="#A1A1AA" font-size="15">Procurement • Production</text><text x="24" y="98" fill="#A1A1AA" font-size="15">Warehouses • Finance</text></g><g transform="translate(322 140)"><rect width="250" height="110" rx="18" fill="#17171F" stroke="#2B2B38"/><circle cx="34" cy="34" r="14" fill="url(#g)"/><text x="62" y="40" fill="#fff" font-size="20" font-weight="700">Digital Platforms</text><text x="24" y="76" fill="#A1A1AA" font-size="15">SaaS • LMS • Portals</text><text x="24" y="98" fill="#A1A1AA" font-size="15">E-commerce • Payments</text></g><g transform="translate(590 140)"><rect width="250" height="110" rx="18" fill="#17171F" stroke="#2B2B38"/><circle cx="34" cy="34" r="14" fill="url(#g)"/><text x="62" y="40" fill="#fff" font-size="20" font-weight="700">Data Systems</text><text x="24" y="76" fill="#A1A1AA" font-size="15">ETL • KPIs • Analytics</text><text x="24" y="98" fill="#A1A1AA" font-size="15">Dashboards • Reporting</text></g><g transform="translate(858 140)"><rect width="288" height="110" rx="18" fill="#17171F" stroke="#2B2B38"/><circle cx="34" cy="34" r="14" fill="url(#g)"/><text x="62" y="40" fill="#fff" font-size="20" font-weight="700">Production Engineering</text><text x="24" y="76" fill="#A1A1AA" font-size="15">Infrastructure • Security</text><text x="24" y="98" fill="#A1A1AA" font-size="15">Performance • Recovery</text></g></g></svg>