<svg xmlns="http://www.w3.org/2000/svg" width="1200" height="430" viewBox="0 0 1200 430"><defs><linearGradient id="g" x1="0" x2="1"><stop stop-color="#7C3AED"/><stop offset="1" stop-color="#4F46E5"/></linearGradient></defs><rect width="1200" height="430" rx="28" fill="#0D0D12"/><text x="54" y="58" fill="#A1A1AA" font-family="Arial" font-size="17" letter-spacing="3">SELECTED IMPACT</text><text x="54" y="102" fill="#fff" font-family="Arial" font-size="34" font-weight="700">Engineering outcomes, not portfolio filler.</text><g font-family="Arial"><g transform="translate(54 140)"><rect width="530" height="110" rx="18" fill="#17171F" stroke="#2B2B38"/><rect width="8" height="110" rx="4" fill="url(#g)"/><text x="30" y="34" fill="#fff" font-size="20" font-weight="700">National Waste Analytics · Saudi Arabia</text><text x="30" y="62" fill="#8B5CF6" font-size="14">Django · DRF · React · Oracle 19c</text><text x="30" y="89" fill="#A1A1AA" font-size="15">Multi-schema government analytics · 40%+ faster dashboards</text></g><g transform="translate(616 140)"><rect width="530" height="110" rx="18" fill="#17171F" stroke="#2B2B38"/><rect width="8" height="110" rx="4" fill="url(#g)"/><text x="30" y="34" fill="#fff" font-size="20" font-weight="700">AIC Digital Ecosystem</text><text x="30" y="62" fill="#8B5CF6" font-size="14">Laravel · Filament · Modular Architecture</text><text x="30" y="89" fill="#A1A1AA" font-size="15">Food safety, quality, auditing and operations in one ecosystem</text></g><g transform="translate(54 274)"><rect width="530" height="110" rx="18" fill="#17171F" stroke="#2B2B38"/><rect width="8" height="110" rx="4" fill="url(#g)"/><text x="30" y="34" fill="#fff" font-size="20" font-weight="700">Food Manufacturing ERP</text><text x="30" y="62" fill="#8B5CF6" font-size="14">Laravel · Filament · MySQL · Redis</text><text x="30" y="89" fill="#A1A1AA" font-size="15">Procurement to production, warehouses and distribution</text></g><g transform="translate(616 274)"><rect width="530" height="110" rx="18" fill="#17171F" stroke="#2B2B38"/><rect width="8" height="110" rx="4" fill="url(#g)"/><text x="30" y="34" fill="#fff" font-size="20" font-weight="700">Banking &amp; Insurance Platforms</text><text x="30" y="62" fill="#8B5CF6" font-size="14">PHP · Yii2 · Laravel · APIs</text><text x="30" y="89" fill="#A1A1AA" font-size="15">Secure customer, policy, claim and financial workflows</text></g></g></svg>