<svg xmlns="http://www.w3.org/2000/svg" width="1200" height="520" viewBox="0 0 1200 520"><defs><linearGradient id="bg" x1="0" y1="0" x2="1" y2="1"><stop stop-color="#09090B"/><stop offset="1" stop-color="#18112F"/></linearGradient><linearGradient id="g" x1="0" y1="0" x2="1" y2="0"><stop stop-color="#7C3AED"/><stop offset="1" stop-color="#4F46E5"/></linearGradient><filter id="glow"><feGaussianBlur stdDeviation="28"/></filter></defs><rect width="1200" height="520" rx="32" fill="url(#bg)"/><circle cx="1040" cy="120" r="170" fill="#7C3AED" opacity=".18" filter="url(#glow)"/><circle cx="950" cy="430" r="150" fill="#4F46E5" opacity=".12" filter="url(#glow)"/><text x="70" y="78" fill="#A1A1AA" font-size="18" font-family="Arial" letter-spacing="5">FOUNDER · SOFTWARE ENGINEER · SYSTEMS ARCHITECT</text><text x="70" y="180" fill="#FFFFFF" font-size="66" font-family="Arial" font-weight="700">Islam Elsayed</text><text x="70" y="235" fill="url(#g)" font-size="30" font-family="Arial" font-weight="700">I build the systems businesses depend on.</text><text x="70" y="300" fill="#D4D4D8" font-size="21" font-family="Arial">Enterprise platforms, ERP ecosystems, analytics, APIs,</text><text x="70" y="334" fill="#D4D4D8" font-size="21" font-family="Arial">and digital infrastructure across the Middle East.</text><rect x="70" y="390" width="250" height="58" rx="14" fill="url(#g)"/><text x="195" y="427" fill="#fff" text-anchor="middle" font-family="Arial" font-size="18" font-weight="700">FOUNDER OF SHIFTCODES</text><path d="M925 130l90-52 90 52v104l-90 52-90-52z" fill="none" stroke="url(#g)" stroke-width="8"/><path d="M985 145l-34 35 34 35M1045 145l34 35-34 35M1028 128l-26 105" fill="none" stroke="#fff" stroke-width="8" stroke-linecap="round" stroke-linejoin="round"/></svg>