<svg xmlns="http://www.w3.org/2000/svg" width="1200" height="560" viewBox="0 0 1200 560"><defs><linearGradient id="g" x1="0" y1="0" x2="1" y2="1"><stop stop-color="#7C3AED"/><stop offset="1" stop-color="#4F46E5"/></linearGradient></defs><rect width="1200" height="560" rx="28" fill="#0D0D12"/><text x="55" y="62" fill="#A1A1AA" font-family="Arial" font-size="17" letter-spacing="4">SELECTED IMPACT</text><text x="55" y="108" fill="#fff" font-family="Arial" font-size="34" font-weight="700">Systems with operational weight.</text><g font-family="Arial"><g transform="translate(55 155)"><rect width="340" height="325" rx="20" fill="#15151C" stroke="#27272A"/><rect width="8" height="325" rx="4" fill="url(#g)"/><text x="28" y="48" fill="#A78BFA" font-size="15" font-weight="700">GOVERNMENT ANALYTICS</text><text x="28" y="88" fill="#fff" font-size="23" font-weight="700">Saudi Waste Platform</text><text x="28" y="124" fill="#A1A1AA" font-size="16">Django · React · Oracle 19c</text><text x="28" y="176" fill="#D4D4D8" font-size="17">Multi-schema KPI aggregation,</text><text x="28" y="204" fill="#D4D4D8" font-size="17">ETL workflows and executive</text><text x="28" y="232" fill="#D4D4D8" font-size="17">operational dashboards.</text><text x="28" y="286" fill="#fff" font-size="30" font-weight="700">40%+</text><text x="115" y="286" fill="#A1A1AA" font-size="15">FASTER DASHBOARDS</text></g><g transform="translate(430 155)"><rect width="340" height="325" rx="20" fill="#15151C" stroke="#27272A"/><rect width="8" height="325" rx="4" fill="url(#g)"/><text x="28" y="48" fill="#A78BFA" font-size="15" font-weight="700">DIGITAL ECOSYSTEM</text><text x="28" y="88" fill="#fff" font-size="23" font-weight="700">AIC Operations Suite</text><text x="28" y="124" fill="#A1A1AA" font-size="16">Laravel · Filament · Modular</text><text x="28" y="176" fill="#D4D4D8" font-size="17">Food safety, quality, auditing,</text><text x="28" y="204" fill="#D4D4D8" font-size="17">client workflows and internal</text><text x="28" y="232" fill="#D4D4D8" font-size="17">operations in one ecosystem.</text><text x="28" y="286" fill="#fff" font-size="30" font-weight="700">3</text><text x="58" y="286" fill="#A1A1AA" font-size="15">CONNECTED PORTALS</text></g><g transform="translate(805 155)"><rect width="340" height="325" rx="20" fill="#15151C" stroke="#27272A"/><rect width="8" height="325" rx="4" fill="url(#g)"/><text x="28" y="48" fill="#A78BFA" font-size="15" font-weight="700">ENTERPRISE ERP</text><text x="28" y="88" fill="#fff" font-size="23" font-weight="700">Food Manufacturing ERP</text><text x="28" y="124" fill="#A1A1AA" font-size="16">Laravel · Filament · Redis</text><text x="28" y="176" fill="#D4D4D8" font-size="17">Procurement, production, stock,</text><text x="28" y="204" fill="#D4D4D8" font-size="17">approvals, transfers, returns and</text><text x="28" y="232" fill="#D4D4D8" font-size="17">branch distribution workflows.</text><text x="28" y="286" fill="#fff" font-size="30" font-weight="700">E2E</text><text x="95" y="286" fill="#A1A1AA" font-size="15">OPERATIONAL COVERAGE</text></g></g></svg>