<svg xmlns="http://www.w3.org/2000/svg" width="1200" height="430" viewBox="0 0 1200 430"><defs><linearGradient id="g" x1="0" y1="0" x2="1" y2="0"><stop stop-color="#7C3AED"/><stop offset="1" stop-color="#4F46E5"/></linearGradient></defs><rect width="1200" height="430" rx="28" fill="#F8F7FC"/><text x="60" y="70" fill="#4F46E5" font-family="Arial" font-size="14" letter-spacing="4">HOW I THINK</text><text x="60" y="116" fill="#111118" font-family="Arial" font-size="34" font-weight="700">From operation to architecture to reliable delivery.</text><path d="M150 225H1050" stroke="#D8D5E5" stroke-width="4"/><g font-family="Arial"><g><circle cx="150" cy="225" r="44" fill="#111118"/><text x="150" y="232" fill="#fff" font-size="22" text-anchor="middle" font-weight="700">01</text><text x="150" y="305" fill="#111118" font-size="18" text-anchor="middle" font-weight="700">Discover</text><text x="150" y="332" fill="#6B6878" font-size="14" text-anchor="middle">Real workflows</text></g><g><circle cx="375" cy="225" r="44" fill="#111118"/><text x="375" y="232" fill="#fff" font-size="22" text-anchor="middle" font-weight="700">02</text><text x="375" y="305" fill="#111118" font-size="18" text-anchor="middle" font-weight="700">Model</text><text x="375" y="332" fill="#6B6878" font-size="14" text-anchor="middle">Data & rules</text></g><g><circle cx="600" cy="225" r="50" fill="url(#g)"/><text x="600" y="232" fill="#fff" font-size="22" text-anchor="middle" font-weight="700">03</text><text x="600" y="305" fill="#111118" font-size="18" text-anchor="middle" font-weight="700">Architect</text><text x="600" y="332" fill="#6B6878" font-size="14" text-anchor="middle">Clear modules</text></g><g><circle cx="825" cy="225" r="44" fill="#111118"/><text x="825" y="232" fill="#fff" font-size="22" text-anchor="middle" font-weight="700">04</text><text x="825" y="305" fill="#111118" font-size="18" text-anchor="middle" font-weight="700">Ship</text><text x="825" y="332" fill="#6B6878" font-size="14" text-anchor="middle">Production ready</text></g><g><circle cx="1050" cy="225" r="44" fill="#111118"/><text x="1050" y="232" fill="#fff" font-size="22" text-anchor="middle" font-weight="700">05</text><text x="1050" y="305" fill="#111118" font-size="18" text-anchor="middle" font-weight="700">Evolve</text><text x="1050" y="332" fill="#6B6878" font-size="14" text-anchor="middle">Measure & improve</text></g></g><rect x="60" y="382" width="1080" height="3" rx="2" fill="url(#g)"/></svg>