<svg xmlns="http://www.w3.org/2000/svg" width="1200" height="560" viewBox="0 0 1200 560"><defs><linearGradient id="bg" x1="0" y1="0" x2="1" y2="1"><stop stop-color="#07070b"/><stop offset="1" stop-color="#15102a"/></linearGradient><linearGradient id="g" x1="0" y1="0" x2="1" y2="0"><stop stop-color="#7C3AED"/><stop offset="1" stop-color="#4F46E5"/></linearGradient><filter id="glow"><feGaussianBlur stdDeviation="9" result="b"/><feMerge><feMergeNode in="b"/><feMergeNode in="SourceGraphic"/></feMerge></filter><pattern id="grid" width="40" height="40" patternUnits="userSpaceOnUse"><path d="M40 0H0V40" fill="none" stroke="#ffffff" stroke-opacity=".035"/></pattern></defs><rect width="1200" height="560" rx="28" fill="url(#bg)"/><rect width="1200" height="560" rx="28" fill="url(#grid)"/><rect x="34" y="30" width="1132" height="500" rx="20" fill="none" stroke="#ffffff" stroke-opacity=".1"/><circle cx="68" cy="60" r="6" fill="#7C3AED"/><circle cx="88" cy="60" r="6" fill="#4F46E5"/><circle cx="108" cy="60" r="6" fill="#A1A1AA"/><text x="140" y="66" fill="#A1A1AA" font-family="Arial, sans-serif" font-size="14" letter-spacing="3">SHIFTCODES / ENGINEERING COMMAND CENTER</text><text x="70" y="155" fill="#A1A1AA" font-family="Arial, sans-serif" font-size="18" letter-spacing="5">FOUNDER · SYSTEMS ARCHITECT · SENIOR SOFTWARE ENGINEER</text><text x="70" y="230" fill="#FFFFFF" font-family="Arial, sans-serif" font-size="62" font-weight="700">Islam Elsayed</text><text x="70" y="285" fill="#C4B5FD" font-family="Arial, sans-serif" font-size="28">I turn operational complexity into software that runs businesses.</text><text x="70" y="340" fill="#A1A1AA" font-family="Arial, sans-serif" font-size="19">ERP · GOVERNMENT ANALYTICS · BANKING · INSURANCE · LMS · SAAS · INFRASTRUCTURE</text><rect x="70" y="385" width="320" height="64" rx="14" fill="#0D0D12" stroke="#7C3AED"/><text x="95" y="411" fill="#A1A1AA" font-family="Arial, sans-serif" font-size="13" letter-spacing="2">CURRENT MODE</text><text x="95" y="437" fill="#FFFFFF" font-family="Arial, sans-serif" font-size="20" font-weight="700">BUILDING SYSTEMS THAT SCALE</text><rect x="415" y="385" width="210" height="64" rx="14" fill="#0D0D12" stroke="#ffffff" stroke-opacity=".12"/><text x="440" y="411" fill="#A1A1AA" font-family="Arial, sans-serif" font-size="13" letter-spacing="2">REGION</text><text x="440" y="437" fill="#FFFFFF" font-family="Arial, sans-serif" font-size="20" font-weight="700">MIDDLE EAST</text><g transform="translate(805 120)"><hexagon/><path d="M100 0 220 70v140L100 280-20 210V70Z" fill="#0D0D12" stroke="url(#g)" stroke-width="4" filter="url(#glow)"/><path d="M55 95 10 140l45 45M145 95l45 45-45 45M120 70 80 210" fill="none" stroke="#fff" stroke-width="12" stroke-linecap="round" stroke-linejoin="round"/><circle cx="100" cy="140" r="155" fill="none" stroke="#7C3AED" stroke-opacity=".18"/><circle cx="100" cy="140" r="185" fill="none" stroke="#4F46E5" stroke-opacity=".08"/></g><rect x="70" y="493" width="1060" height="3" rx="2" fill="url(#g)"/></svg>