<svg xmlns="http://www.w3.org/2000/svg" width="1200" height="430" viewBox="0 0 1200 430"><defs><linearGradient id="bg" x1="0" y1="0" x2="1" y2="1"><stop stop-color="#09090F"/><stop offset="1" stop-color="#18112F"/></linearGradient><linearGradient id="a" x1="0" y1="0" x2="1" y2="0"><stop stop-color="#7C3AED"/><stop offset="1" stop-color="#4F46E5"/></linearGradient><pattern id="grid" width="36" height="36" patternUnits="userSpaceOnUse"><path d="M36 0H0V36" fill="none" stroke="#fff" stroke-opacity=".035"/></pattern></defs><rect width="1200" height="430" rx="26" fill="url(#bg)"/><rect width="1200" height="430" rx="26" fill="url(#grid)"/><rect x="30" y="28" width="1140" height="374" rx="20" fill="none" stroke="#fff" stroke-opacity=".09"/><circle cx="58" cy="54" r="5" fill="#7C3AED"/><circle cx="76" cy="54" r="5" fill="#4F46E5"/><circle cx="94" cy="54" r="5" fill="#A1A1AA"/><text x="122" y="60" fill="#A1A1AA" font-family="Arial,sans-serif" font-size="13" letter-spacing="3">SHIFTCODES / ENGINEERING</text><text x="64" y="132" fill="#C4B5FD" font-family="Arial,sans-serif" font-size="15" letter-spacing="4">FOUNDER · SYSTEMS ARCHITECT · SENIOR SOFTWARE ENGINEER</text><text x="64" y="202" fill="#fff" font-family="Arial,sans-serif" font-size="58" font-weight="700">Islam Elsayed</text><text x="64" y="252" fill="#EDE9FE" font-family="Arial,sans-serif" font-size="25">Building production software for complex operations.</text><text x="64" y="294" fill="#A1A1AA" font-family="Arial,sans-serif" font-size="17">ERP · ANALYTICS · BANKING · INSURANCE · LMS · SAAS · INFRASTRUCTURE</text><rect x="64" y="329" width="314" height="46" rx="12" fill="#0D0D12" stroke="#7C3AED"/><text x="88" y="358" fill="#fff" font-family="Arial,sans-serif" font-size="16" font-weight="700">EGYPT → MIDDLE EAST</text><g transform="translate(890 92)"><path d="M105 0 205 58v116l-100 58L5 174V58Z" fill="#0D0D12" stroke="url(#a)" stroke-width="4"/><path d="M70 78 36 116l34 38M140 78l34 38-34 38M122 58 88 174" fill="none" stroke="#fff" stroke-width="10" stroke-linecap="round" stroke-linejoin="round"/><circle cx="105" cy="116" r="135" fill="none" stroke="#7C3AED" stroke-opacity=".14"/></g><rect x="64" y="393" width="1072" height="3" rx="2" fill="url(#a)"/></svg>